<svg width="32" height="42" viewBox="0 0 32 42" fill="none" xmlns="http://www.w3.org/2000/svg">
<path d="M0.734751 1.27475C1.12272 0.710071 1.71556 0.324539 2.38326 0.202691C3.05097 0.0808426 3.73905 0.232623 4.29662 0.624748L30.2035 18.8247C30.5418 19.0644 30.8181 19.3833 31.0089 19.7545C31.1997 20.1257 31.2993 20.5381 31.2993 20.9567C31.2993 21.3754 31.1997 21.7878 31.0089 22.159C30.8181 22.5302 30.5418 22.8491 30.2035 23.0887L4.29662 41.2887C3.87535 41.5872 3.37538 41.7502 2.86163 41.7567C2.44417 41.7603 2.03219 41.6603 1.66151 41.4654C1.29084 41.2706 0.972693 40.9868 0.734751 40.6387C0.350818 40.0698 0.205322 39.3695 0.330265 38.6918C0.455208 38.014 0.840354 37.4144 1.401 37.0247L24.2585 20.9567L1.401 4.88875C0.840354 4.49911 0.455208 3.89948 0.330265 3.22174C0.205322 2.54399 0.350818 1.84365 0.734751 1.27475Z" fill="black"/>
</svg>
