<svg width="32" height="42" viewBox="0 0 32 42" fill="none" xmlns="http://www.w3.org/2000/svg">
<path d="M31.0675 1.27475C30.6795 0.710071 30.0867 0.324539 29.419 0.202691C28.7513 0.0808426 28.0632 0.232623 27.5056 0.624748L1.59875 18.8247C1.26042 19.0644 0.984124 19.3833 0.79334 19.7545C0.602556 20.1257 0.50293 20.5381 0.50293 20.9567C0.50293 21.3754 0.602556 21.7878 0.79334 22.159C0.984124 22.5302 1.26042 22.8491 1.59875 23.0887L27.5056 41.2887C27.9269 41.5872 28.4269 41.7502 28.9406 41.7567C29.3581 41.7603 29.7701 41.6603 30.1407 41.4654C30.5114 41.2706 30.8296 40.9868 31.0675 40.6387C31.4514 40.0698 31.5969 39.3695 31.472 38.6918C31.347 38.014 30.9619 37.4144 30.4012 37.0247L7.54375 20.9567L30.4012 4.88875C30.9619 4.49911 31.347 3.89948 31.472 3.22174C31.5969 2.54399 31.4514 1.84365 31.0675 1.27475Z" fill="black"/>
</svg>
