<svg width="150" height="151" viewBox="0 0 150 151" fill="none" xmlns="http://www.w3.org/2000/svg">
<rect y="0.149536" width="150" height="150" fill="white"/>
<path d="M75 69.1641L71.6247 62.5504C70.7865 60.9127 69.333 58.5578 67.2753 56.654C65.2516 54.7796 62.8277 53.5042 59.8979 53.5042C53.5702 53.5042 48.5714 58.4063 48.5714 64.2991C48.5714 68.7759 50.663 71.9368 55.6241 76.7575C56.8964 77.9922 58.3462 79.3268 59.9508 80.7981C64.1341 84.6429 69.3367 89.4266 75 95.8221C80.6633 89.4266 85.8659 84.6429 90.0492 80.7981C91.6538 79.3268 93.1074 77.9885 94.3759 76.7575C99.337 71.9368 101.429 68.7759 101.429 64.2991C101.429 58.4063 96.4298 53.5042 90.1021 53.5042C87.1685 53.5042 84.7484 54.7796 82.7247 56.654C80.667 58.5578 79.2135 60.9127 78.3753 62.5504L75 69.1641ZM76.48 99.8184C76.2982 100.029 76.0716 100.199 75.8159 100.315C75.5603 100.431 75.2819 100.492 75 100.492C74.7181 100.492 74.4397 100.431 74.1841 100.315C73.9284 100.199 73.7018 100.029 73.52 99.8184C67.4754 92.787 62.0047 87.7593 57.5005 83.6225C49.7041 76.4543 44.7959 71.9478 44.7959 64.2991C44.7959 56.2954 51.5541 49.8074 59.8979 49.8074C65.9388 49.8074 70.1636 53.6891 72.7498 57.2307C73.7314 58.58 74.479 59.8776 75 60.8979C75.6538 59.6213 76.406 58.3953 77.2502 57.2307C79.8364 53.6854 84.0612 49.8074 90.1021 49.8074C98.4459 49.8074 105.204 56.2954 105.204 64.2991C105.204 71.9478 100.296 76.4543 92.4995 83.6225C87.9953 87.763 82.5246 92.7944 76.48 99.8184Z" fill="#212121"/>
</svg>
