<svg width="180" height="180" viewBox="0 0 180 180" fill="none" xmlns="http://www.w3.org/2000/svg">
<rect x="0.5" y="0.5" width="179" height="179" rx="10" fill="url(#paint0_linear_826_1134)"/>
<path d="M132.705 71.0158C132.514 70.8368 132.323 70.6588 132.131 70.4798C132.743 70.1858 133.078 69.3968 132.449 68.7128C131.8 68.0048 131.142 67.3058 130.484 66.6068C131.414 66.7568 132.259 65.4058 131.442 64.6498C130.992 64.2328 130.555 63.8078 130.119 63.3808C130.707 63.2188 131.201 62.6218 130.954 61.9908C130.486 60.7888 129.975 60.2618 128.746 59.8438C128.514 59.7648 128.306 59.7658 128.123 59.8158L124.887 57.7188C123.963 57.1198 123.158 58.0148 123.253 58.8758C122.735 58.5118 122.217 58.1478 121.699 57.7828C120.85 57.1868 119.899 58.1168 120.014 58.9648C119.592 58.6348 119.169 58.3038 118.748 57.9728C117.924 57.3268 116.85 57.9508 116.78 58.7328C116.164 58.9008 115.7 59.5388 115.921 60.1328C115.488 59.7618 115.055 59.3918 114.623 59.0218C113.521 58.0808 112.015 59.5428 113.019 60.6258C114.665 62.4018 116.311 64.1778 117.957 65.9538L111.802 60.9478C110.705 60.0548 109.187 61.4588 110.169 62.5148C109.225 62.4588 108.361 63.6358 109.25 64.4038C112.39 67.1158 115.378 69.9838 118.22 72.9888C114.784 69.9668 111.349 66.9458 107.915 63.9238C106.827 62.9668 105.229 64.5358 106.312 65.5268C108.878 67.8728 111.348 70.3138 113.734 72.8308C111.018 70.3388 108.261 67.8908 105.457 65.4938C104.625 64.7828 103.541 65.4648 103.518 66.2978C102.935 66.3348 102.422 66.8358 102.399 67.3978C102.344 67.3668 102.291 67.3348 102.236 67.3038C101.345 66.8098 100.463 67.6128 100.559 68.4368C99.5295 68.0748 98.4405 69.3088 99.3505 70.2568C101.7 72.6998 104.006 75.1828 106.278 77.6958C103.621 75.0878 100.963 72.4778 98.3065 69.8698C97.4035 68.9838 95.8515 70.1238 96.5315 71.2398C96.5775 71.3158 96.6265 71.3898 96.6735 71.4648C96.3205 71.1338 95.9675 70.8028 95.6145 70.4718C94.7215 69.6338 93.0705 70.7478 93.8405 71.8398C95.2045 73.7728 96.6115 75.6728 98.0385 77.5558C96.5395 76.2848 95.0315 75.0278 93.4965 73.7978C92.3705 72.8948 90.9445 74.2718 91.8995 75.3948C93.4025 77.1598 94.9065 78.9238 96.4095 80.6898C93.6105 77.8628 90.8125 75.0368 88.0145 72.2098C87.1105 71.2968 85.8755 72.3518 86.1775 73.3628C84.8495 71.9348 83.5215 70.5088 82.1935 69.0818C81.6805 68.5308 80.9335 68.7238 80.5355 69.1948C79.7405 68.3368 78.9455 67.4788 78.1505 66.6208C77.2705 65.6718 75.7495 66.8888 76.3805 67.9858C76.4575 68.1188 76.5375 68.2488 76.6145 68.3808C75.3675 66.9808 74.1215 65.5808 72.8745 64.1808C72.1615 63.3788 71.0185 64.0798 70.9715 64.9618C69.7455 63.6848 68.5235 62.4058 67.2915 61.1358C66.4195 60.2368 64.8035 61.4188 65.5255 62.4978C66.4155 63.8308 67.3215 65.1508 68.2345 66.4648C66.6005 64.5408 64.9675 62.6168 63.3355 60.6928C62.6085 59.8358 61.5425 60.5788 61.4875 61.4718C61.3835 61.3498 61.2805 61.2278 61.1785 61.1058C60.3655 60.1428 58.6885 61.4188 59.4185 62.4638C60.9585 64.6678 62.5295 66.8458 64.1215 69.0088C61.8295 66.4538 59.5345 63.9018 57.2425 61.3458C56.4145 60.4218 54.7625 61.6558 55.5005 62.6898C55.7695 63.0678 56.0435 63.4418 56.3135 63.8198C56.0595 63.7858 55.8005 63.8438 55.5785 63.9668C55.2915 63.6338 55.0095 63.2968 54.7225 62.9638C54.1225 62.2668 53.0785 62.7588 52.8485 63.4828C52.3435 63.0448 51.5725 63.0968 51.1755 63.7238C50.6885 64.4918 50.5925 65.2468 50.7175 65.9848C50.4575 65.6638 50.1985 65.3408 49.9365 65.0218C49.1555 64.0708 47.4945 65.3348 48.2175 66.3488C48.3345 66.5108 48.4495 66.6728 48.5655 66.8358C47.6935 66.3758 46.4355 67.2548 47.1235 68.2188C47.5625 68.8348 48.0025 69.4498 48.4425 70.0658C47.7035 69.7698 46.6635 70.2758 47.0285 71.2098C47.6035 72.6778 48.2505 74.1058 48.9495 75.5078C48.9275 75.6328 48.9255 75.7658 48.9485 75.9078C49.6215 79.9728 51.8355 83.3378 54.3855 86.4678C53.5915 85.7098 52.1025 86.7448 52.8015 87.7028C55.0175 90.7458 57.2355 93.7878 59.4515 96.8308C58.8975 97.0688 58.4825 97.7318 58.9015 98.3058C63.2685 104.286 67.4415 110.418 71.7015 116.475C72.1725 117.145 73.0635 116.894 73.2845 116.315C75.1725 118.719 77.0535 121.128 78.9235 123.546C79.6285 124.457 81.2205 123.245 80.5335 122.304C75.6005 115.54 70.6675 108.776 65.7345 102.012C72.3765 110.197 78.4035 118.892 84.3925 127.573C85.1155 128.621 86.7925 127.685 86.1225 126.562C85.7815 125.99 85.4325 125.423 85.0865 124.854C86.6915 126.784 88.3035 128.708 89.9365 130.615C90.3685 131.12 90.9215 131.009 91.2675 130.647C91.7835 131.17 92.3055 131.689 92.8315 132.203C93.6335 132.984 95.1365 131.94 94.4395 130.962C94.2625 130.715 94.0855 130.466 93.9095 130.219C94.8015 130.859 96.2585 129.919 95.5165 128.881C95.3355 128.627 95.1545 128.373 94.9745 128.12C95.3755 128.53 95.7775 128.94 96.1845 129.346C97.2045 130.36 98.5945 128.872 97.7295 127.801C94.9105 124.314 92.1345 120.793 89.3775 117.257C92.1745 120.595 95.2765 123.598 98.8965 125.912C100.001 126.618 101.044 125.078 100.24 124.17C98.3785 122.068 96.5335 119.951 94.7015 117.824C96.6505 119.884 98.6395 121.909 100.686 123.885C101.558 124.727 103.22 123.585 102.436 122.533C99.8715 119.091 97.2785 115.671 94.6735 112.259C97.2265 115.027 99.9855 117.601 103.101 119.834C104.171 120.6 105.336 118.954 104.472 118.058C98.2465 111.609 92.1965 104.995 86.3265 98.2268C84.6575 95.9428 82.9955 93.6618 81.2825 91.4458C89.4135 100.508 97.5475 109.566 105.679 118.627C106.425 119.459 107.533 118.687 107.542 117.802C107.917 117.402 108.067 116.741 107.632 116.197C104.402 112.149 101.171 108.1 97.9405 104.053C101.33 107.81 104.745 111.545 108.206 115.24C109.202 116.302 110.751 114.725 109.796 113.65C105.663 109.005 101.531 104.353 97.4495 99.6578C102.006 104.302 106.747 108.772 111.557 113.131C112.64 114.112 114.083 112.636 113.147 111.54C112.988 111.353 112.827 111.169 112.668 110.982C113.192 110.691 113.534 110.036 113.137 109.434C110.798 105.881 108.174 102.556 105.41 99.3428C107.687 101.8 109.964 104.256 112.241 106.713C112.944 107.472 114.205 106.765 114.199 105.904C114.859 105.656 115.305 104.736 114.701 104.016L105.659 93.2388C109.095 96.7088 112.53 100.179 115.966 103.648C117.003 104.695 118.493 103.145 117.563 102.052C112.694 96.3358 107.825 90.6188 102.956 84.9038C104.623 86.4378 106.264 88.0008 107.882 89.5878C111.274 93.4268 114.803 97.1478 118.479 100.729C119.529 101.752 121.033 100.215 120.076 99.1308C116.678 95.2878 113.138 91.5778 109.48 87.9918C108.921 87.3588 108.363 86.7238 107.811 86.0838C112.251 90.8318 117.195 95.1078 122.581 98.8398C123.639 99.5738 124.877 97.9358 123.95 97.0658C123.593 96.7308 123.235 96.3948 122.878 96.0598C123.405 95.7238 123.678 94.9288 123.167 94.2758C120.444 90.7898 117.651 87.3618 114.793 83.9908C117.914 86.9848 120.966 90.0538 123.944 93.1968C124.82 94.1218 126.411 92.9208 125.72 91.8258C125.398 91.3158 125.072 90.8088 124.743 90.3048C124.726 90.1748 124.689 90.0428 124.623 89.9088C124.489 89.6388 124.346 89.3758 124.208 89.1098C124.544 89.4378 124.881 89.7658 125.217 90.0928C125.973 90.8288 127.324 90.0708 127.192 89.1758C128.087 89.8048 129.521 88.6728 128.81 87.6658C127.14 85.2988 125.397 82.9898 123.597 80.7288C124.99 81.9538 126.383 83.1788 127.775 84.4038C128.677 85.1978 130.365 84.1288 129.554 83.0308C128.718 81.8978 127.858 80.7848 126.987 79.6828C127.423 80.0568 127.858 80.4328 128.292 80.8068C129.386 81.7488 130.936 80.2538 129.896 79.2038C128.821 78.1188 127.746 77.0338 126.67 75.9488C127.418 76.5558 128.164 77.1638 128.911 77.7718C130.026 78.6798 131.527 77.2608 130.515 76.1688C129.654 75.2398 128.793 74.3108 127.932 73.3808C128.199 73.6088 128.467 73.8378 128.734 74.0668C129.639 74.8398 131.338 73.7958 130.516 72.6918C130.168 72.2238 129.811 71.7648 129.455 71.3048C130.005 71.7408 130.548 72.1838 131.1 72.6178C132.216 73.5008 133.8 72.0378 132.705 71.0158ZM71.4655 102.523C68.1605 97.8268 64.8595 93.1258 61.5565 88.4278C67.8715 97.2698 74.1855 106.112 80.5005 114.954C77.3905 110.887 74.4145 106.712 71.4655 102.523ZM74.0885 96.9638C71.3055 93.1288 68.5695 89.2598 65.8595 85.3718C70.0715 91.0218 74.3815 96.5998 78.7845 102.102C81.1535 105.725 83.5345 109.504 86.1385 113.085C82.0505 107.765 78.0305 102.394 74.0885 96.9638ZM81.2915 98.6528C82.2325 99.8408 83.1735 101.029 84.1095 102.221C83.1605 101.039 82.2215 99.8488 81.2915 98.6528ZM111.859 77.2508C110.863 76.2368 109.869 75.2218 108.88 74.2018C108.913 74.2248 108.946 74.2478 108.979 74.2718C109.434 74.7148 109.889 75.1578 110.344 75.6018C110.855 76.1458 111.359 76.6968 111.859 77.2508Z" fill="white"/>
<defs>
<linearGradient id="paint0_linear_826_1134" x1="12.4907" y1="134.75" x2="167.509" y2="45.25" gradientUnits="userSpaceOnUse">
<stop stop-color="#FF9A9E"/>
<stop offset="1" stop-color="#FAD0C4"/>
</linearGradient>
</defs>
</svg>
