<svg width="101" height="100" viewBox="0 0 101 100" fill="none" xmlns="http://www.w3.org/2000/svg">
<path d="M33 35.001C33 34.5037 33.1975 34.0268 33.5492 33.6752C33.9008 33.3235 34.3777 33.126 34.875 33.126C35.3723 33.126 35.8492 33.3235 36.2008 33.6752C36.5525 34.0268 36.75 34.5037 36.75 35.001V47.181L60.2513 33.546C62.2763 32.376 64.875 33.7935 64.875 36.156V63.846C64.875 66.2085 62.28 67.6335 60.2513 66.4597L36.75 52.8247V65.001C36.75 65.4983 36.5525 65.9752 36.2008 66.3268C35.8492 66.6784 35.3723 66.876 34.875 66.876C34.3777 66.876 33.9008 66.6784 33.5492 66.3268C33.1975 65.9752 33 65.4983 33 65.001V35.001Z" fill="black"/>
</svg>
