<svg width="52" height="46" viewBox="0 0 52 46" fill="none" xmlns="http://www.w3.org/2000/svg">
<path d="M51.9411 39.32C52.2418 36.9489 51.4528 34.6208 49.7614 32.9294L44.613 27.781C44.5817 27.7303 44.5348 27.5896 44.5114 27.3592L43.863 16.9372V16.8786C43.1442 7.55827 35.7224 0.308568 26.601 0.00756836H26.0502C16.7494 0.00756836 8.90218 7.25757 8.19118 16.5196V16.5782L7.51149 27.3672C7.49196 27.6054 7.43336 27.7461 7.40211 27.7969L2.26151 32.9375C0.570107 34.6289 -0.218992 36.957 0.081808 39.3281C0.570088 43.1367 3.88261 46.0078 7.79271 46.0078H44.2537C48.1639 46.0078 51.4725 43.1367 51.9646 39.3281L51.9411 39.32ZM4.03106 38.8083C3.89044 37.6677 4.26153 36.5583 5.07016 35.7497L10.2421 30.5778C10.953 29.8669 11.3905 28.8161 11.4804 27.6364L12.16 16.8084C12.7186 9.53892 18.7694 3.99942 26.031 3.99942H26.4529C33.531 4.22989 39.3049 9.89782 39.8629 17.1794L40.5114 27.6404C40.6012 28.8201 41.0426 29.8592 41.7302 30.5623L46.9216 35.7537C47.7302 36.5623 48.113 37.6756 47.9607 38.8123C47.7302 40.6326 46.1209 42.0037 44.2224 42.0037L7.76937 41.9998C5.87097 41.9998 4.25766 40.6286 4.03106 38.8083Z" fill="black"/>
</svg>
