<svg width="17" height="6" viewBox="0 0 17 6" fill="none" xmlns="http://www.w3.org/2000/svg">
<path d="M12.5901 0.590057L12.5315 0.648659C12.5315 0.648659 10.9612 2.00025 8.012 2.00025C5.4808 2.00025 3.8714 1.01198 3.4729 0.629158C3.05102 0.207278 2.55102 0.000244141 2.012 0.000244141C1.47294 0.000244141 0.972903 0.211188 0.601803 0.590088C0.222893 0.968998 0.0119629 1.46899 0.0119629 2.00028C0.0119629 2.53157 0.222903 3.03938 0.601803 3.41048C0.863523 3.68001 3.3206 6.00028 8.012 6.00028C12.7034 6.00028 15.1604 3.67998 15.4222 3.41048C15.8011 3.03157 16.012 2.53158 16.012 1.98859C16.012 1.44953 15.8011 0.949484 15.4222 0.578384C14.7113 -0.132556 13.3011 -0.132556 12.5941 0.578384L12.5901 0.590057Z" fill="black"/>
</svg>
