<svg width="180" height="180" viewBox="0 0 180 180" fill="none" xmlns="http://www.w3.org/2000/svg">
<rect width="179" height="179" transform="translate(0.5 0.5)" fill="url(#paint0_linear_826_1134)"/>
<path d="M144.302 64.5031C144.059 64.2755 143.816 64.0492 143.572 63.8215C144.35 63.4477 144.776 62.4445 143.976 61.5747C143.151 60.6745 142.314 59.7857 141.478 58.8969C142.66 59.0876 143.735 57.3697 142.696 56.4085C142.124 55.8782 141.568 55.3378 141.014 54.7949C141.761 54.5889 142.389 53.8298 142.075 53.0274C141.48 51.499 140.83 50.8289 139.268 50.2974C138.973 50.197 138.708 50.1982 138.476 50.2618L134.361 47.5954C133.186 46.8337 132.162 47.9718 132.283 49.0666C131.624 48.6037 130.966 48.1409 130.307 47.6768C129.228 46.9189 128.018 48.1015 128.165 49.1797C127.628 48.7601 127.09 48.3393 126.555 47.9184C125.507 47.097 124.141 47.8904 124.052 48.8847C123.269 49.0984 122.679 49.9096 122.96 50.6649C122.41 50.1932 121.859 49.7227 121.31 49.2522C119.909 48.0557 117.994 49.9147 119.27 51.2918C121.363 53.55 123.456 55.8083 125.549 58.0665L117.723 51.7012C116.328 50.5657 114.398 52.351 115.646 53.6937C114.446 53.6225 113.347 55.1191 114.478 56.0957C118.47 59.5441 122.27 63.1909 125.883 67.0118C121.514 63.1692 117.147 59.3279 112.78 55.4853C111.397 54.2685 109.365 56.2635 110.742 57.5236C114.005 60.5066 117.145 63.6105 120.179 66.8109C116.726 63.6423 113.22 60.5295 109.655 57.4816C108.597 56.5776 107.219 57.4448 107.189 58.504C106.448 58.551 105.796 59.188 105.766 59.9027C105.696 59.8632 105.629 59.8225 105.559 59.7831C104.426 59.155 103.305 60.176 103.427 61.2238C102.117 60.7635 100.732 62.3326 101.889 63.538C104.878 66.6444 107.81 69.8016 110.699 72.997C107.32 69.6808 103.94 66.3621 100.562 63.0459C99.4138 61.9193 97.4404 63.3689 98.305 64.7879C98.3635 64.8846 98.4258 64.9786 98.4856 65.074C98.0367 64.6531 97.5879 64.2323 97.139 63.8114C96.0035 62.7458 93.9042 64.1623 94.8833 65.5508C96.6177 68.0087 98.4067 70.4247 100.221 72.819C98.3152 71.2028 96.3977 69.6045 94.4459 68.0405C93.0141 66.8923 91.2009 68.6432 92.4152 70.0712C94.3264 72.3154 96.2388 74.5584 98.1499 76.804C94.5908 73.2093 91.0331 69.616 87.4753 66.0213C86.3258 64.8604 84.7555 66.2019 85.1395 67.4874C83.4509 65.6716 81.7623 63.8584 80.0737 62.0439C79.4214 61.3433 78.4715 61.5887 77.9654 62.1876C76.9546 61.0966 75.9437 60.0056 74.9328 58.9147C73.8139 57.708 71.8798 59.2554 72.6822 60.6503C72.7801 60.8194 72.8818 60.9847 72.9797 61.1526C71.3941 59.3724 69.8098 57.5923 68.2242 55.8121C67.3176 54.7923 65.8642 55.6837 65.8044 56.8052C64.2455 55.1814 62.6917 53.5551 61.1251 51.9403C60.0164 50.7971 57.9615 52.3001 58.8796 53.6721C60.0113 55.3671 61.1633 57.0455 62.3242 58.7163C60.2465 56.2699 58.1701 53.8234 56.0949 51.377C55.1705 50.2873 53.8151 51.232 53.7451 52.3675C53.6129 52.2124 53.4819 52.0572 53.3522 51.9021C52.3184 50.6776 50.1861 52.3001 51.1143 53.6289C53.0725 56.4313 55.0701 59.2008 57.0944 61.9511C54.18 58.7023 51.2618 55.4573 48.3474 52.2073C47.2946 51.0324 45.194 52.6015 46.1324 53.9162C46.4744 54.3969 46.8228 54.8724 47.1662 55.3531C46.8432 55.3098 46.5139 55.3836 46.2316 55.54C45.8666 55.1166 45.5081 54.6881 45.1431 54.2646C44.3802 53.3784 43.0527 54.004 42.7603 54.9246C42.1181 54.3676 41.1378 54.4338 40.633 55.231C40.0137 56.2076 39.8917 57.1676 40.0506 58.106C39.72 57.6978 39.3907 57.2871 39.0575 56.8815C38.0645 55.6722 35.9524 57.2795 36.8718 58.5688C37.0205 58.7748 37.1668 58.9808 37.3143 59.188C36.2055 58.6031 34.6059 59.7208 35.4807 60.9466C36.0389 61.7299 36.5984 62.5119 37.1579 63.2951C36.2182 62.9188 34.8958 63.5621 35.3599 64.7498C36.091 66.6164 36.9137 68.4322 37.8025 70.2149C37.7746 70.3738 37.772 70.5429 37.8013 70.7235C38.657 75.8923 41.4722 80.171 44.7146 84.151C43.705 83.1871 41.8117 84.5032 42.7005 85.7213C45.5182 89.5906 48.3385 93.4586 51.1563 97.3279C50.4518 97.6306 49.9241 98.4736 50.4569 99.2035C56.0097 106.807 61.3159 114.604 66.7326 122.306C67.3315 123.158 68.4645 122.839 68.7455 122.103C71.1462 125.159 73.5379 128.223 75.9157 131.297C76.8122 132.456 78.8364 130.914 77.9629 129.718C71.6904 121.117 65.4179 112.517 59.1454 103.916C67.5909 114.323 75.2545 125.379 82.8698 136.418C83.7891 137.75 85.9215 136.56 85.0695 135.132C84.6359 134.405 84.1922 133.684 83.7522 132.96C85.793 135.414 87.8428 137.861 89.9192 140.286C90.4685 140.928 91.1717 140.787 91.6116 140.326C92.2677 140.991 92.9315 141.651 93.6003 142.305C94.6201 143.298 96.5312 141.97 95.645 140.727C95.4199 140.413 95.1948 140.096 94.971 139.782C96.1053 140.596 97.9579 139.401 97.0144 138.081C96.7843 137.758 96.5541 137.435 96.3252 137.113C96.8351 137.635 97.3463 138.156 97.8638 138.672C99.1608 139.961 100.928 138.069 99.8283 136.708C96.2439 132.274 92.7141 127.797 89.2084 123.3C92.7649 127.545 96.7092 131.363 101.312 134.306C102.717 135.203 104.043 133.245 103.021 132.091C100.654 129.418 98.3076 126.726 95.9781 124.021C98.4563 126.641 100.985 129.216 103.588 131.728C104.697 132.799 106.81 131.347 105.813 130.009C102.552 125.632 99.2549 121.284 95.9425 116.945C99.1887 120.465 102.697 123.738 106.659 126.577C108.02 127.551 109.501 125.458 108.402 124.319C100.486 116.119 92.7929 107.709 85.3289 99.103C83.2067 96.1988 81.0934 93.2984 78.9153 90.4807C89.2542 102.003 99.5969 113.521 109.937 125.042C110.886 126.1 112.295 125.119 112.306 123.993C112.783 123.485 112.974 122.644 112.42 121.953C108.313 116.805 104.205 111.657 100.097 106.511C104.407 111.288 108.749 116.037 113.15 120.736C114.417 122.086 116.386 120.081 115.172 118.714C109.917 112.808 104.663 106.892 99.4723 100.923C105.267 106.828 111.295 112.511 117.411 118.054C118.788 119.301 120.623 117.425 119.433 116.031C119.231 115.793 119.026 115.559 118.824 115.322C119.49 114.952 119.925 114.119 119.42 113.353C116.446 108.835 113.11 104.608 109.595 100.522C112.49 103.646 115.386 106.769 118.281 109.893C119.175 110.858 120.778 109.959 120.771 108.865C121.61 108.549 122.177 107.379 121.409 106.464L109.912 92.7606C114.281 97.1728 118.648 101.585 123.017 105.996C124.336 107.327 126.231 105.356 125.048 103.967C118.857 96.6985 112.666 89.4291 106.475 82.1623C108.594 84.1128 110.681 86.1002 112.738 88.1182C117.051 92.9996 121.539 97.731 126.213 102.284C127.548 103.585 129.46 101.631 128.243 100.252C123.923 95.3659 119.422 90.6485 114.77 86.0888C114.059 85.2839 113.35 84.4765 112.648 83.6627C118.294 89.7 124.58 95.1371 131.429 99.8825C132.774 100.816 134.348 98.733 133.169 97.6267C132.715 97.2008 132.26 96.7735 131.806 96.3476C132.476 95.9203 132.824 94.9095 132.174 94.0791C128.711 89.6466 125.16 85.2877 121.526 81.0013C125.494 84.8083 129.375 88.7107 133.162 92.7072C134.276 93.8833 136.299 92.3562 135.42 90.9639C135.011 90.3154 134.596 89.6707 134.178 89.0299C134.156 88.8646 134.109 88.6967 134.025 88.5263C133.855 88.183 133.673 87.8486 133.497 87.5104C133.925 87.9274 134.353 88.3445 134.78 88.7603C135.742 89.6961 137.46 88.7323 137.292 87.5943C138.43 88.3941 140.253 86.9547 139.349 85.6743C137.226 82.6645 135.009 79.7285 132.721 76.8536C134.492 78.4112 136.263 79.9688 138.033 81.5265C139.18 82.5361 141.326 81.1768 140.295 79.7807C139.232 78.34 138.139 76.9248 137.031 75.5235C137.585 75.9991 138.139 76.4772 138.69 76.9528C140.082 78.1505 142.052 76.2496 140.73 74.9145C139.363 73.5348 137.996 72.1552 136.628 70.7756C137.579 71.5474 138.528 72.3205 139.478 73.0936C140.895 74.2482 142.804 72.4439 141.517 71.0553C140.422 69.8741 139.327 68.6928 138.233 67.5103C138.572 67.8002 138.913 68.0914 139.252 68.3826C140.403 69.3655 142.564 68.038 141.518 66.6342C141.076 66.0391 140.622 65.4555 140.169 64.8706C140.869 65.425 141.559 65.9883 142.261 66.5401C143.68 67.6629 145.694 65.8026 144.302 64.5031ZM66.4326 104.566C62.2301 98.5944 58.0328 92.6169 53.8329 86.6432C61.8626 97.8861 69.8912 109.129 77.9209 120.372C73.9664 115.201 70.1823 109.892 66.4326 104.566ZM69.7678 97.4971C66.2291 92.6207 62.7502 87.7011 59.3043 82.7573C64.66 89.9416 70.1404 97.0342 75.739 104.03C78.7513 108.637 81.7788 113.442 85.0899 117.996C79.8918 111.231 74.7802 104.402 69.7678 97.4971ZM78.9267 99.6447C80.1232 101.155 81.3198 102.666 82.5099 104.182C81.3032 102.679 80.1093 101.165 78.9267 99.6447ZM117.795 72.4312C116.529 71.1418 115.265 69.8512 114.007 68.5542C114.049 68.5835 114.091 68.6127 114.133 68.6432C114.712 69.2065 115.29 69.7698 115.869 70.3344C116.519 71.0261 117.159 71.7267 117.795 72.4312Z" fill="white"/>
<defs>
<linearGradient id="paint0_linear_826_1134" x1="11.9907" y1="134.25" x2="167.009" y2="44.75" gradientUnits="userSpaceOnUse">
<stop stop-color="#FF9A9E"/>
<stop offset="1" stop-color="#FAD0C4"/>
</linearGradient>
</defs>
</svg>
