<svg width="101" height="100" viewBox="0 0 101 100" fill="none" xmlns="http://www.w3.org/2000/svg">
<circle cx="50.5" cy="50" r="50" fill="white"/>
<path d="M36.6858 35.4247C36.6858 34.3201 37.5812 33.4247 38.6858 33.4247H44.803C45.9075 33.4247 46.803 34.3201 46.803 35.4247V64.5753C46.803 65.6799 45.9075 66.5753 44.803 66.5753H38.6858C37.5812 66.5753 36.6858 65.6799 36.6858 64.5753V35.4247Z" fill="black"/>
<path d="M54.197 35.4247C54.197 34.3201 55.0925 33.4247 56.197 33.4247H62.3142C63.4188 33.4247 64.3142 34.3201 64.3142 35.4247V64.5753C64.3142 65.6799 63.4188 66.5753 62.3142 66.5753H56.197C55.0925 66.5753 54.197 65.6799 54.197 64.5753V35.4247Z" fill="black"/>
</svg>
