<svg width="101" height="100" viewBox="0 0 101 100" fill="none" xmlns="http://www.w3.org/2000/svg">
<path d="M68 35.001C68 34.5037 67.8025 34.0268 67.4508 33.6752C67.0992 33.3235 66.6223 33.126 66.125 33.126C65.6277 33.126 65.1508 33.3235 64.7992 33.6752C64.4475 34.0268 64.25 34.5037 64.25 35.001V47.181L40.7487 33.546C38.7237 32.376 36.125 33.7935 36.125 36.156V63.846C36.125 66.2085 38.72 67.6335 40.7487 66.4597L64.25 52.8247V65.001C64.25 65.4983 64.4475 65.9752 64.7992 66.3268C65.1508 66.6784 65.6277 66.876 66.125 66.876C66.6223 66.876 67.0992 66.6784 67.4508 66.3268C67.8025 65.9752 68 65.4983 68 65.001V35.001Z" fill=""/>
</svg>
